<svg xmlns="http://www.w3.org/2000/svg" width="480" height="396" viewBox="0 0 480 396" font-family="ui-monospace, SFMono-Regular, Menlo, Consolas, monospace"><defs><linearGradient id="ibg" x1="0" y1="0" x2="0" y2="1"><stop offset="0" stop-color="#111722"></stop><stop offset="1" stop-color="#0d1117"></stop></linearGradient></defs><rect width="480" height="396" rx="12" fill="url(#ibg)"></rect><rect x="0.5" y="0.5" width="479" height="395" rx="12" fill="none" stroke="#30363d"></rect><line x1="0" y1="30" x2="480" y2="30" stroke="#30363d"></line><circle cx="20" cy="15" r="5" fill="#ff5f56"></circle><circle cx="36" cy="15" r="5" fill="#ffbd2e"></circle><circle cx="52" cy="15" r="5" fill="#27c93f"></circle><text x="240" y="19" fill="#7d8590" font-size="12" text-anchor="middle">houssem@github: ~$ neofetch</text><g opacity="0" transform="translate(0,5)"><text x="20" y="60.0" font-size="14" font-weight="700"><tspan fill="#3fb950">houssem</tspan><tspan fill="#7d8590">@</tspan><tspan fill="#22d3ee">github</tspan></text><line x1="150" y1="56.0" x2="460" y2="56.0" stroke="#30363d" stroke-opacity="0.8"></line></g><g opacity="0" transform="translate(0,5)"><text x="20" y="80.5" fill="#ffa657" font-size="12.5" font-weight="700">Now</text><text x="112" y="80.5" fill="#c9d1d9" font-size="12.5">Infra &amp; DevOps Intern @ Eng. Order</text></g><g opacity="0" transform="translate(0,5)"><text x="20" y="101.0" fill="#ffa657" font-size="12.5" font-weight="700">Also</text><text x="112" y="101.0" fill="#c9d1d9" font-size="12.5">Data Science Intern @ MedFlow</text></g><g opacity="0" transform="translate(0,5)"><text x="20" y="121.5" fill="#ffa657" font-size="12.5" font-weight="700">Edu</text><text x="112" y="121.5" fill="#c9d1d9" font-size="12.5">IT Engineering @ TEK-UP, Tunisia</text></g><g opacity="0" transform="translate(0,5)"><text x="20" y="142.0" fill="#ffa657" font-size="12.5" font-weight="700">Focus</text><text x="112" y="142.0" fill="#c9d1d9" font-size="12.5">Cloud &amp; Infrastructure Management</text></g><g opacity="0" transform="translate(0,5)"><text x="20" y="172.8" fill="#58a6ff" font-size="12.5" font-weight="700">— Stack</text><line x1="72" y1="168.8" x2="460" y2="168.8" stroke="#30363d" stroke-opacity="0.8"></line></g><g opacity="0" transform="translate(0,5)"><text x="20" y="193.3" fill="#ffa657" font-size="12.5" font-weight="700">Cloud</text><text x="112" y="193.3" fill="#c9d1d9" font-size="12.5">AWS (SAA certified), VPC, EC2, IAM</text></g><g opacity="0" transform="translate(0,5)"><text x="20" y="213.8" fill="#ffa657" font-size="12.5" font-weight="700">Linux</text><text x="112" y="213.8" fill="#c9d1d9" font-size="12.5">RHEL, Podman, systemd, hardening</text></g><g opacity="0" transform="translate(0,5)"><text x="20" y="234.3" fill="#ffa657" font-size="12.5" font-weight="700">Automation</text><text x="112" y="234.3" fill="#c9d1d9" font-size="12.5">Ansible, Terraform, GitLab CI/CD</text></g><g opacity="0" transform="translate(0,5)"><text x="20" y="254.8" fill="#ffa657" font-size="12.5" font-weight="700">Containers</text><text x="112" y="254.8" fill="#c9d1d9" font-size="12.5">Kubernetes, Helm, Docker</text></g><g opacity="0" transform="translate(0,5)"><text x="20" y="275.3" fill="#ffa657" font-size="12.5" font-weight="700">Code</text><text x="112" y="275.3" fill="#c9d1d9" font-size="12.5">Python (PCAP), Bash</text></g><g opacity="0" transform="translate(0,5)"><text x="20" y="306.0" fill="#58a6ff" font-size="12.5" font-weight="700">— Highlights</text><line x1="112" y1="302.0" x2="460" y2="302.0" stroke="#30363d" stroke-opacity="0.8"></line></g><g opacity="0" transform="translate(0,5)"><circle cx="23" cy="322.5" r="2.5" fill="#3fb950"></circle><text x="34" y="326.5" fill="#c9d1d9" font-size="12.5">7 active certs: RHCSA, RHCE ×2, AWS SAA…</text></g><g opacity="0" transform="translate(0,5)"><circle cx="23" cy="343.0" r="2.5" fill="#3fb950"></circle><text x="34" y="347.0" fill="#c9d1d9" font-size="12.5">VulnForge: Lynis hardening 66 → 74</text></g></svg>